<?xml version="1.0" encoding="utf-8"?>
<!-- Generator: Adobe Illustrator 15.1.0, SVG Export Plug-In . SVG Version: 6.00 Build 0)  -->
<!DOCTYPE svg PUBLIC "-//W3C//DTD SVG 1.1//EN" "http://www.w3.org/Graphics/SVG/1.1/DTD/svg11.dtd">
<svg version="1.1" id="Layer_1" xmlns="http://www.w3.org/2000/svg" xmlns:xlink="http://www.w3.org/1999/xlink" x="0px" y="0px"
	 width="612px" height="792px" viewBox="0 0 612 792" enable-background="new 0 0 612 792" xml:space="preserve">
<rect x="187.608" y="342.026" fill="none" stroke="#002B5C" stroke-width="4" width="282.392" height="53.117"/>
<g>
	<path fill="#002B5C" stroke="#002B5C" stroke-width="0.8" d="M214.8,378.757h3.618v-19.033H214.8v-0.39h6.13
		c0.304,0,0.608-0.002,0.913-0.008c0.305-0.005,0.609-0.013,0.914-0.023c0.304,0,0.603-0.005,0.897-0.016
		c0.294-0.01,0.593-0.016,0.897-0.016c1.24,0,2.387,0.125,3.442,0.375c1.055,0.25,1.968,0.607,2.741,1.07s1.376,1.019,1.811,1.667
		s0.653,1.371,0.653,2.167c0,0.834-0.25,1.575-0.751,2.223s-1.165,1.195-1.993,1.64s-1.792,0.787-2.891,1.028
		c-1.1,0.241-2.249,0.361-3.446,0.361c-0.305,0-0.697-0.022-1.176-0.068c-0.479-0.045-0.904-0.096-1.274-0.15v9.173h3.618v0.389
		H214.8V378.757z M221.667,369.174c0.436,0.074,0.894,0.13,1.373,0.167s0.904,0.056,1.275,0.056c1.612,0,2.871-0.403,3.776-1.21
		c0.904-0.807,1.357-2.025,1.357-3.657c0-0.945-0.109-1.733-0.327-2.364s-0.561-1.136-1.03-1.516
		c-0.469-0.38-1.079-0.644-1.831-0.792s-1.651-0.223-2.697-0.223c-0.415,0-0.791,0.009-1.128,0.028s-0.594,0.037-0.768,0.056
		V369.174z"/>
	<path fill="#002B5C" stroke="#002B5C" stroke-width="0.8" d="M260.066,379.146h-0.489c-0.152-0.148-0.326-0.283-0.521-0.403
		c-0.195-0.12-0.5-0.181-0.913-0.181c-0.326,0-0.679,0.051-1.059,0.153c-0.38,0.102-0.815,0.217-1.304,0.346
		c-0.489,0.129-1.038,0.243-1.646,0.342c-0.608,0.099-1.282,0.149-2.021,0.149c-1.369,0-2.7-0.213-3.993-0.64
		s-2.516-1.122-3.667-2.086c-1.065-0.908-1.957-1.983-2.674-3.226c-0.718-1.242-1.076-2.679-1.076-4.311
		c0-1.39,0.293-2.716,0.88-3.977s1.402-2.373,2.445-3.337c1.043-0.964,2.271-1.729,3.684-2.294s2.955-0.848,4.628-0.848
		c0.674,0,1.271,0.056,1.793,0.167s0.988,0.236,1.401,0.375c0.413,0.139,0.793,0.264,1.141,0.375s0.685,0.167,1.011,0.167
		c0.435,0,0.744-0.06,0.929-0.181s0.353-0.255,0.505-0.404h0.489v5.562h-0.358c-0.196-0.704-0.446-1.399-0.75-2.085
		s-0.728-1.293-1.271-1.822c-0.543-0.528-1.233-0.952-2.07-1.271c-0.837-0.318-1.874-0.478-3.112-0.478
		c-1.152,0-2.141,0.153-2.966,0.459s-1.521,0.713-2.086,1.223c-0.565,0.51-1.016,1.103-1.353,1.78s-0.592,1.391-0.766,2.142
		s-0.288,1.511-0.342,2.28c-0.055,0.77-0.082,1.497-0.082,2.183c0,1.947,0.185,3.56,0.554,4.839c0.369,1.279,0.885,2.29,1.548,3.031
		c0.663,0.742,1.461,1.261,2.396,1.557c0.934,0.297,1.966,0.445,3.097,0.445c1.456,0,2.629-0.176,3.52-0.53
		c0.891-0.354,1.608-0.813,2.151-1.381c0.543-0.567,0.956-1.208,1.239-1.924c0.282-0.716,0.532-1.427,0.75-2.134h0.359V379.146z"/>
	<path fill="#002B5C" stroke="#002B5C" stroke-width="0.8" d="M290.227,372.053h-2.607v6.306h-0.392
		c-0.239-0.204-0.435-0.342-0.587-0.417s-0.391-0.111-0.717-0.111c-0.392,0-0.789,0.088-1.191,0.264s-0.87,0.375-1.403,0.597
		s-1.158,0.421-1.875,0.597c-0.718,0.175-1.588,0.264-2.61,0.264c-1.544,0-2.915-0.218-4.111-0.653
		c-1.196-0.436-2.349-1.126-3.458-2.072c-1.087-0.927-1.989-2.021-2.706-3.281c-0.717-1.261-1.076-2.679-1.076-4.255
		c0-1.057,0.141-2.006,0.424-2.85c0.282-0.844,0.625-1.581,1.027-2.211s0.815-1.159,1.239-1.585c0.424-0.426,0.777-0.76,1.06-1.001
		c0.979-0.834,2.1-1.511,3.362-2.03c1.262-0.519,2.698-0.779,4.308-0.779c0.827,0,1.507,0.056,2.04,0.167s0.996,0.236,1.387,0.375
		c0.392,0.139,0.745,0.264,1.061,0.375s0.669,0.167,1.061,0.167c0.435,0,0.744-0.051,0.929-0.153s0.364-0.246,0.538-0.432h0.489
		v5.562h-0.358c-0.087-0.481-0.255-1.047-0.505-1.696c-0.25-0.649-0.642-1.27-1.174-1.863s-1.24-1.091-2.121-1.493
		c-0.881-0.402-2.007-0.604-3.378-0.604c-1.632,0-2.943,0.292-3.934,0.876s-1.763,1.354-2.317,2.308s-0.925,2.034-1.109,3.239
		c-0.185,1.205-0.277,2.419-0.277,3.643c0,0.834,0.043,1.669,0.13,2.503s0.234,1.622,0.441,2.363
		c0.207,0.742,0.495,1.428,0.865,2.058c0.37,0.63,0.848,1.168,1.436,1.612c0.652,0.501,1.327,0.849,2.023,1.043
		c0.696,0.195,1.599,0.292,2.709,0.292c0.674,0,1.349-0.097,2.023-0.292c0.674-0.195,1.278-0.487,1.811-0.877
		s0.968-0.886,1.306-1.489c0.337-0.603,0.506-1.313,0.506-2.129v-2.338h-4.205v-0.375h9.937V372.053z"/>
	<path fill="#002B5C" stroke="#002B5C" stroke-width="0.8" d="M315.408,379.146h-0.488c-0.152-0.148-0.326-0.283-0.521-0.403
		c-0.195-0.12-0.5-0.181-0.914-0.181c-0.326,0-0.678,0.051-1.059,0.153c-0.381,0.102-0.814,0.217-1.303,0.346
		c-0.49,0.129-1.039,0.243-1.646,0.342c-0.609,0.099-1.283,0.149-2.021,0.149c-1.369,0-2.699-0.213-3.992-0.64
		s-2.516-1.122-3.667-2.086c-1.065-0.908-1.957-1.983-2.674-3.226c-0.718-1.242-1.076-2.679-1.076-4.311
		c0-1.39,0.293-2.716,0.88-3.977s1.402-2.373,2.445-3.337c1.043-0.964,2.271-1.729,3.684-2.294s2.955-0.848,4.628-0.848
		c0.674,0,1.271,0.056,1.793,0.167s0.988,0.236,1.4,0.375c0.414,0.139,0.793,0.264,1.141,0.375s0.686,0.167,1.012,0.167
		c0.434,0,0.744-0.06,0.928-0.181c0.186-0.121,0.354-0.255,0.506-0.404h0.488v5.562h-0.357c-0.195-0.704-0.445-1.399-0.75-2.085
		s-0.729-1.293-1.271-1.822s-1.232-0.952-2.07-1.271c-0.836-0.318-1.873-0.478-3.111-0.478c-1.152,0-2.141,0.153-2.966,0.459
		s-1.521,0.713-2.086,1.223c-0.565,0.51-1.016,1.103-1.353,1.78s-0.592,1.391-0.766,2.142s-0.288,1.511-0.342,2.28
		c-0.055,0.77-0.082,1.497-0.082,2.183c0,1.947,0.185,3.56,0.554,4.839c0.369,1.279,0.885,2.29,1.548,3.031
		c0.663,0.742,1.461,1.261,2.396,1.557c0.934,0.297,1.966,0.445,3.097,0.445c1.455,0,2.629-0.176,3.52-0.53s1.607-0.813,2.15-1.381
		c0.543-0.567,0.957-1.208,1.24-1.924c0.281-0.716,0.531-1.427,0.748-2.134h0.359V379.146z"/>
	<path fill="#002B5C" stroke="#002B5C" stroke-width="0.8" d="M335.506,378.86c-0.264,0.173-0.578,0.323-0.941,0.452
		c-0.365,0.129-0.811,0.193-1.338,0.193c-0.971,0-1.674-0.177-2.109-0.531c-0.434-0.354-0.732-0.851-0.895-1.49h-0.062
		c-0.08,0.156-0.191,0.35-0.334,0.583c-0.141,0.233-0.359,0.458-0.652,0.674c-0.293,0.216-0.684,0.397-1.168,0.544
		c-0.486,0.147-1.104,0.22-1.852,0.22c-0.85,0-1.527-0.082-2.033-0.246s-0.9-0.367-1.184-0.609s-0.471-0.514-0.562-0.816
		c-0.092-0.303-0.137-0.583-0.137-0.843c0-0.604,0.143-1.088,0.426-1.451c0.283-0.362,0.652-0.652,1.107-0.868
		c0.457-0.216,0.963-0.393,1.52-0.531s1.117-0.285,1.686-0.44c0.668-0.19,1.219-0.354,1.654-0.493
		c0.436-0.138,0.773-0.306,1.018-0.505c0.242-0.199,0.41-0.449,0.5-0.751c0.092-0.302,0.137-0.712,0.137-1.231
		c0-0.415-0.029-0.786-0.092-1.114c-0.061-0.328-0.172-0.608-0.334-0.842s-0.396-0.41-0.699-0.531
		c-0.305-0.121-0.711-0.182-1.219-0.182c-0.668,0-1.223,0.1-1.658,0.298s-0.654,0.522-0.654,0.971c0,0.294,0.031,0.583,0.094,0.868
		s0.094,0.497,0.094,0.634c0,0.242-0.102,0.444-0.303,0.608c-0.203,0.164-0.496,0.246-0.881,0.246c-0.668,0-1.084-0.104-1.244-0.311
		c-0.162-0.207-0.244-0.474-0.244-0.802c0-0.38,0.102-0.742,0.305-1.087c0.201-0.345,0.5-0.651,0.895-0.918
		c0.395-0.268,0.891-0.479,1.488-0.634s1.281-0.233,2.051-0.233c0.93,0,1.709,0.1,2.338,0.298c0.627,0.199,1.133,0.467,1.518,0.804
		s0.658,0.717,0.82,1.14c0.162,0.423,0.242,0.868,0.242,1.334v6.452c0,0.501,0.092,0.838,0.273,1.011s0.445,0.259,0.791,0.259
		c0.223,0,0.455-0.034,0.699-0.104c0.242-0.069,0.475-0.173,0.699-0.312L335.506,378.86z M330.191,372.803l-0.061-0.008
		c-0.041,0.225-0.375,0.449-1.002,0.674l-2.277,0.777c-0.648,0.225-1.143,0.54-1.488,0.946c-0.344,0.406-0.516,0.912-0.516,1.517
		c0,0.259,0.031,0.527,0.092,0.804s0.172,0.523,0.334,0.739c0.162,0.216,0.389,0.393,0.684,0.532
		c0.293,0.138,0.672,0.207,1.139,0.207c0.668,0,1.209-0.121,1.623-0.362c0.416-0.242,0.729-0.544,0.941-0.906
		s0.354-0.755,0.426-1.178c0.07-0.423,0.105-0.807,0.105-1.152V372.803z"/>
	<path fill="#002B5C" stroke="#002B5C" stroke-width="0.8" d="M339.863,378.784h2.34v-10.388h-2.34v-0.375h4.887v2.719l0.062,0.007
		c0.426-1.037,1.037-1.797,1.838-2.281c0.801-0.483,1.77-0.726,2.904-0.726c1.014,0,1.91,0.19,2.691,0.572
		c0.779,0.381,1.291,1.013,1.535,1.897l0.061-0.006c0.141-0.312,0.334-0.613,0.578-0.907c0.242-0.294,0.547-0.558,0.91-0.791
		c0.365-0.233,0.797-0.419,1.293-0.557s1.059-0.208,1.688-0.208c2.959,0,4.439,1.288,4.439,3.862v7.181h2.34v0.363h-7.289v-0.363
		h2.34v-8.816c0-0.588-0.188-1.046-0.564-1.375c-0.375-0.329-0.887-0.493-1.535-0.493c-0.508,0-1.016,0.082-1.521,0.246
		c-0.508,0.165-0.965,0.411-1.369,0.739c-0.406,0.329-0.736,0.752-0.99,1.271c-0.252,0.519-0.379,1.124-0.379,1.815v6.612h2.34
		v0.363h-7.289v-0.363h2.34v-8.45c0-0.762-0.184-1.325-0.549-1.688c-0.365-0.364-0.852-0.546-1.461-0.546
		c-0.426,0-0.893,0.091-1.398,0.272c-0.508,0.182-0.979,0.467-1.416,0.855c-0.436,0.389-0.801,0.895-1.094,1.517
		c-0.295,0.623-0.441,1.383-0.441,2.282v5.757h2.34v0.363h-7.289V378.784z"/>
	<path fill="#002B5C" stroke="#002B5C" stroke-width="0.8" d="M368.963,386.049h2.34v-17.653h-2.34v-0.375h4.887v2.188l0.062-0.001
		c0.303-0.726,0.805-1.326,1.504-1.802c0.699-0.475,1.607-0.713,2.721-0.713c0.873,0,1.693,0.16,2.463,0.479
		s1.449,0.742,2.037,1.269s1.055,1.144,1.398,1.852s0.518,1.451,0.518,2.228c0,0.794-0.178,1.55-0.533,2.267
		c-0.354,0.717-0.836,1.351-1.443,1.904s-1.312,0.993-2.113,1.321c-0.799,0.328-1.646,0.492-2.537,0.492
		c-0.689,0-1.271-0.099-1.748-0.297c-0.477-0.198-0.867-0.431-1.17-0.697c-0.305-0.267-0.537-0.542-0.699-0.826
		s-0.273-0.512-0.334-0.685h-0.062v9.048h2.34v0.363h-7.289V386.049z M381.506,373.211c0-0.795-0.051-1.508-0.152-2.139
		s-0.279-1.171-0.531-1.62c-0.254-0.449-0.607-0.794-1.064-1.036c-0.455-0.242-1.037-0.363-1.746-0.363
		c-0.748,0-1.367,0.112-1.852,0.337c-0.486,0.225-0.881,0.51-1.186,0.855c-0.223,0.242-0.4,0.501-0.531,0.777
		c-0.133,0.276-0.238,0.605-0.318,0.985c-0.082,0.38-0.139,0.816-0.168,1.309c-0.031,0.493-0.045,1.076-0.045,1.75
		c0,0.57,0.051,1.158,0.15,1.763c0.102,0.604,0.295,1.153,0.578,1.646c0.283,0.493,0.684,0.895,1.199,1.205
		c0.518,0.312,1.199,0.467,2.051,0.467c0.83,0,1.488-0.138,1.975-0.415s0.85-0.674,1.094-1.192c0.242-0.518,0.395-1.145,0.455-1.879
		S381.506,374.109,381.506,373.211z"/>
	<path fill="#002B5C" stroke="#002B5C" stroke-width="0.8" d="M389.412,378.784h2.34v-17.962h-2.34v-0.363h4.949v9.641l0.062,0
		c0.283-0.672,0.77-1.242,1.459-1.708c0.688-0.465,1.59-0.698,2.705-0.698c0.871,0,1.691,0.16,2.461,0.479
		c0.771,0.319,1.449,0.742,2.037,1.269s1.055,1.144,1.398,1.852s0.518,1.451,0.518,2.228c0,0.794-0.178,1.55-0.533,2.267
		c-0.354,0.717-0.836,1.351-1.443,1.904s-1.312,0.993-2.113,1.321s-1.646,0.492-2.539,0.492c-0.688,0-1.271-0.1-1.748-0.298
		c-0.477-0.199-0.871-0.437-1.186-0.713s-0.553-0.562-0.715-0.855s-0.283-0.544-0.363-0.751h-0.062v2.258h-4.887V378.784z
		 M401.955,373.211c0-0.795-0.051-1.508-0.152-2.139s-0.279-1.171-0.531-1.62c-0.254-0.449-0.607-0.794-1.064-1.036
		c-0.455-0.242-1.037-0.363-1.746-0.363c-0.748,0-1.367,0.112-1.852,0.337c-0.486,0.225-0.881,0.51-1.186,0.855
		c-0.223,0.242-0.4,0.501-0.531,0.777c-0.133,0.276-0.238,0.605-0.318,0.985c-0.082,0.38-0.139,0.816-0.168,1.309
		c-0.031,0.493-0.045,1.076-0.045,1.75c0,0.57,0.051,1.158,0.15,1.763c0.102,0.604,0.295,1.153,0.578,1.646
		c0.283,0.493,0.684,0.895,1.199,1.205c0.518,0.312,1.199,0.467,2.051,0.467c0.83,0,1.488-0.138,1.975-0.415s0.85-0.674,1.094-1.192
		c0.242-0.518,0.395-1.145,0.455-1.879S401.955,374.109,401.955,373.211z"/>
	<path fill="#002B5C" stroke="#002B5C" stroke-width="0.8" d="M412.857,372.725c0,0.173-0.006,0.35-0.016,0.531
		c-0.01,0.181-0.016,0.41-0.016,0.686c0,0.57,0.041,1.166,0.121,1.787c0.082,0.622,0.26,1.183,0.533,1.683s0.678,0.915,1.215,1.243
		c0.537,0.328,1.252,0.492,2.143,0.492s1.625-0.112,2.203-0.337s1.033-0.497,1.367-0.816c0.334-0.32,0.584-0.644,0.746-0.972
		s0.283-0.596,0.363-0.804l0.457,0.078c-0.061,0.19-0.178,0.463-0.35,0.817c-0.174,0.354-0.447,0.708-0.82,1.063
		c-0.375,0.354-0.883,0.665-1.52,0.931c-0.639,0.266-1.465,0.4-2.479,0.4c-1.012,0-1.949-0.138-2.811-0.414
		c-0.861-0.276-1.605-0.674-2.236-1.192c-0.629-0.518-1.117-1.135-1.463-1.852c-0.344-0.717-0.518-1.516-0.518-2.396
		c0-0.76,0.178-1.498,0.531-2.215c0.355-0.717,0.84-1.351,1.459-1.904c0.617-0.553,1.34-0.998,2.17-1.334
		c0.83-0.336,1.723-0.505,2.674-0.505c0.566,0,1.174,0.087,1.822,0.26s1.25,0.454,1.807,0.843c0.557,0.389,1.023,0.903,1.396,1.543
		c0.375,0.64,0.562,1.435,0.562,2.386H412.857z M419.092,372.35c0.041-0.241,0.062-0.466,0.062-0.673s0-0.423,0-0.647
		c0-0.586-0.064-1.069-0.197-1.449c-0.131-0.38-0.312-0.682-0.545-0.906c-0.23-0.224-0.514-0.384-0.846-0.479
		c-0.334-0.095-0.691-0.143-1.076-0.143c-0.686,0-1.25,0.117-1.695,0.35c-0.443,0.233-0.797,0.548-1.059,0.945
		s-0.459,0.854-0.59,1.372s-0.217,1.062-0.258,1.631H419.092z"/>
	<path fill="#002B5C" stroke="#002B5C" stroke-width="0.8" d="M426.875,378.784h2.34v-17.962h-2.34v-0.363h4.949v18.325h2.34v0.363
		h-7.289V378.784z"/>
	<path fill="#002B5C" stroke="#002B5C" stroke-width="0.8" d="M438.908,378.784h2.34v-17.962h-2.34v-0.363h4.949v18.325h2.34v0.363
		h-7.289V378.784z"/>
</g>
</svg>
